# xmcd
#
# Track frame offsets: 
#        150
#        13542
#        28915
#        42947
#        56272
#        71792
#        90760
#        100045
#        120350
#        131835
#        146797
#        161862
#        175925
#        188507
#        201927
#        219157
#
# Disc length: 3087 seconds
#
# Revision: 2
# Processed by: cddbd v1.5.2PL0 Copyright (c) Steve Scherf et al.
# Submitted via: ExactAudioCopy v1.3
#
DISCID=d80c0d10
DTITLE=Chris Hillman And The Desert Rose Band - Sixteen Roses - Greate
DTITLE=st Hits 
DYEAR=1994
DGENRE=Country
TTITLE0=Love Reunited
TTITLE1=One Step Forwad
TTITLE2=He´S Back And I´M Blue
TTITLE3=She Don´T Love Nobody
TTITLE4=Summer Wind
TTITLE5=I Still Belive In You
TTITLE6=Hello Trouble
TTITLE7=Start All Over Again
TTITLE8=Story Of Love
TTITLE9=What About Love
TTITLE10=Life Goes On
TTITLE11=True Love
TTITLE12=Undying Love
TTITLE13=Price I Pay
TTITLE14=That´S Not The Way
TTITLE15=Desert Rose
EXTD=
EXTT0=
EXTT1=
EXTT2=
EXTT3=
EXTT4=
EXTT5=
EXTT6=
EXTT7=
EXTT8=
EXTT9=
EXTT10=
EXTT11=
EXTT12=
EXTT13=
EXTT14=
EXTT15=
PLAYORDER=
